<?xml version="1.0" encoding="UTF-8"?>
<svg id="Layer_2" data-name="Layer 2" xmlns="http://www.w3.org/2000/svg" viewBox="0 0 42.52 48.91">
  <defs>
    <style>
      .cls-1 {
        fill: #edecec;
      }
    </style>
  </defs>
  <g id="Layer_1-2" data-name="Layer 1">
    <g>
      <path class="cls-1" d="M9.58,21.62c-1.27,1.87-2.02,4.08-2.1,6.48H0c.07-4.04,1.35-7.79,3.48-10.89l6.1,4.42Z"/>
      <path class="cls-1" d="M9.58,35.69l-6.1,4.42c-2.13-3.11-3.41-6.85-3.48-10.89h7.49c.07,2.4.82,4.6,2.1,6.48Z"/>
      <path class="cls-1" d="M15.72,40.6l-2.28,7.15c-3.71-1.31-6.92-3.67-9.28-6.74l6.06-4.42c1.42,1.8,3.33,3.18,5.5,4.01Z"/>
      <path class="cls-1" d="M25.94,48.08c-1.83.52-3.74.82-5.73.82s-3.89-.3-5.73-.82l2.32-7.15c1.09.34,2.21.49,3.41.49s2.32-.15,3.41-.45l2.32,7.11Z"/>
      <path class="cls-1" d="M36.23,41.01c-2.32,3.03-5.54,5.43-9.25,6.74l-2.32-7.15c2.21-.79,4.12-2.21,5.54-4.01l6.03,4.42Z"/>
      <path class="cls-1" d="M40.43,29.22c-.07,4.04-1.38,7.79-3.52,10.89l-6.06-4.42c1.27-1.87,2.02-4.08,2.1-6.48h7.49Z"/>
      <path class="cls-1" d="M40.43,28.09h-7.49c-.07-2.4-.82-4.6-2.1-6.48l6.06-4.42c2.13,3.11,3.44,6.85,3.52,10.89Z"/>
      <path class="cls-1" d="M25.94,9.23l-2.32,7.11c-1.09-.3-2.21-.45-3.41-.45s-2.32.15-3.41.49l-2.32-7.15c1.83-.52,3.74-.82,5.73-.82s3.89.3,5.73.82Z"/>
      <path class="cls-1" d="M15.72,16.71c-2.17.82-4.08,2.21-5.5,4.01l-6.06-4.42c2.36-3.07,5.58-5.43,9.28-6.74l2.28,7.15Z"/>
      <path class="cls-1" d="M30.2,20.72c-1.46-1.85-3.38-3.24-5.54-4l2.32-7.15c2.88-.04,5.28-2.23,5.57-5.09.26-2.51,2.44-4.48,4.97-4.48,2.75,0,4.99,2.24,4.99,4.99,0,2-1.2,3.81-3.04,4.6-2.6,1.11-3.99,3.98-3.24,6.71l-6.03,4.42h0s0,0,0,0Z"/>
    </g>
  </g>
</svg>