<?xml version="1.0" encoding="UTF-8"?>
<svg id="Layer_2" data-name="Layer 2" xmlns="http://www.w3.org/2000/svg" viewBox="0 0 218.46 44.81">
  <defs>
    <style>
      .cls-1 {
        fill: #edecec;
      }

      .cls-2 {
        fill: #f9e590;
      }

      .cls-3 {
        fill: #585858;
      }

      .cls-4 {
        fill: #8eadbd;
      }
    </style>
  </defs>
  <g id="Layer_1-2" data-name="Layer 1">
    <g>
      <path class="cls-3" d="M7.84,42.73c-2.44-1.39-4.36-3.32-5.75-5.8-1.39-2.48-2.09-5.28-2.09-8.43s.7-5.95,2.09-8.43c1.39-2.48,3.31-4.41,5.75-5.8,2.44-1.39,5.19-2.08,8.26-2.08,2.82,0,5.32.58,7.47,1.75,2.16,1.17,3.84,2.88,5.05,5.13l-4.3,2.6c-.93-1.53-2.11-2.68-3.54-3.44-1.43-.76-3-1.15-4.69-1.15-1.98,0-3.76.47-5.36,1.42-1.59.95-2.84,2.29-3.75,4.02-.91,1.73-1.36,3.72-1.36,5.98s.45,4.31,1.36,6.04c.91,1.73,2.16,3.06,3.75,3.99,1.59.93,3.38,1.39,5.36,1.39,1.73,0,3.31-.37,4.72-1.12,1.41-.75,2.58-1.9,3.51-3.47l4.3,2.66c-1.21,2.22-2.91,3.91-5.08,5.07-2.18,1.17-4.66,1.75-7.44,1.75-3.07,0-5.82-.7-8.26-2.08Z"/>
      <path class="cls-3" d="M57.97,16.01c2.26,2.34,3.39,5.76,3.39,10.27v18.54h-5.51v-17.76c0-3.14-.72-5.51-2.15-7.1-1.43-1.59-3.48-2.39-6.14-2.39-2.95,0-5.29.95-7.02,2.84-1.73,1.89-2.6,4.51-2.6,7.85v16.55h-5.57V0h5.57v18.18c1.09-1.81,2.58-3.21,4.48-4.2,1.9-.99,4.06-1.48,6.48-1.48,3.79,0,6.82,1.17,9.08,3.5Z"/>
      <path class="cls-3" d="M76.93,14.01c1.9-1.05,4.16-1.55,6.78-1.51v5.44c-.32-.04-.77-.06-1.33-.06-2.99,0-5.33.94-7.02,2.81-1.69,1.87-2.54,4.56-2.54,8.06v16.07h-5.57V12.86h5.33v5.74c1.01-2.01,2.46-3.54,4.36-4.59Z"/>
      <path class="cls-3" d="M170.85,16.01c2.2,2.34,3.3,5.76,3.3,10.27v18.54h-5.51v-17.76c0-3.14-.69-5.51-2.06-7.1-1.37-1.59-3.31-2.39-5.81-2.39-2.82,0-5.07.94-6.75,2.81-1.67,1.87-2.51,4.46-2.51,7.76v16.67h-5.45v-17.76c0-3.14-.69-5.51-2.06-7.1-1.37-1.59-3.31-2.39-5.81-2.39-2.82,0-5.06.93-6.72,2.78-1.65,1.85-2.48,4.45-2.48,7.79v16.67h-5.51V12.86h5.27v5.5c1.09-1.85,2.56-3.29,4.42-4.32,1.86-1.03,3.97-1.54,6.35-1.54,2.54,0,4.74.58,6.6,1.75,1.86,1.17,3.21,2.86,4.06,5.07,1.09-2.13,2.65-3.8,4.69-5.01,2.04-1.21,4.39-1.81,7.05-1.81,3.75,0,6.73,1.17,8.93,3.5Z"/>
      <path class="cls-3" d="M201.98,15.43c2.24,2.15,3.36,5.37,3.36,9.63v19.45h-5.21v-5.07c-.89,1.73-2.2,3.06-3.93,3.99-1.74.93-3.83,1.39-6.3,1.39-3.47,0-6.19-.87-8.17-2.6-1.98-1.73-2.97-3.99-2.97-6.76s.98-5,2.94-6.67c1.96-1.67,5.01-2.51,9.17-2.51h8.96c0-1.21-.12-2.25-.36-3.14-.57-4.15-3.15-6.22-7.75-6.22-1.86,0-3.65.32-5.39.97-1.74.64-3.21,1.53-4.42,2.66l-2.18-4.05c1.57-1.37,3.47-2.43,5.69-3.17,2.22-.74,4.52-1.12,6.9-1.12,4.2,0,7.41,1.08,9.65,3.23ZM196.53,39.2c1.47-1.01,2.57-2.48,3.3-4.41v-4.83h-8.47c-4.8,0-7.2,1.75-7.2,5.26,0,1.69.61,3.03,1.85,4.02,1.23.99,2.94,1.48,5.11,1.48s3.94-.5,5.42-1.51Z"/>
      <path class="cls-3" d="M211.65,43.67c-.79-.76-1.18-1.71-1.18-2.84s.38-2.12,1.15-2.87c.77-.75,1.71-1.12,2.84-1.12s2.08.37,2.84,1.12c.77.75,1.15,1.7,1.15,2.87s-.38,2.07-1.15,2.84c-.77.77-1.72,1.15-2.84,1.15s-2.03-.38-2.81-1.15Z"/>
      <g>
        <path class="cls-3" d="M93.89,22.26c-1.05,1.55-1.67,3.37-1.73,5.35h-6.19c.06-3.34,1.11-6.43,2.88-9l5.04,3.65Z"/>
        <path class="cls-1" d="M93.89,33.89l-5.04,3.65c-1.76-2.57-2.82-5.66-2.88-9h6.19c.06,1.98.68,3.8,1.73,5.35Z"/>
        <path class="cls-4" d="M98.96,37.95l-1.89,5.91c-3.06-1.08-5.72-3.03-7.67-5.57l5.01-3.65c1.18,1.48,2.75,2.63,4.55,3.31Z"/>
        <path class="cls-3" d="M107.41,44.13c-1.52.43-3.09.68-4.73.68s-3.22-.25-4.73-.68l1.92-5.91c.9.28,1.82.4,2.81.4s1.92-.12,2.82-.37l1.92,5.88Z"/>
        <path class="cls-3" d="M115.91,38.29c-1.92,2.51-4.58,4.49-7.64,5.57l-1.92-5.91c1.83-.65,3.4-1.83,4.58-3.31l4.98,3.65Z"/>
        <path class="cls-3" d="M119.38,28.54c-.06,3.34-1.14,6.43-2.91,9l-5.01-3.65c1.05-1.55,1.67-3.37,1.73-5.35h6.19Z"/>
        <path class="cls-3" d="M119.38,27.61h-6.19c-.06-1.98-.68-3.8-1.73-5.35l5.01-3.65c1.76,2.57,2.85,5.66,2.91,9Z"/>
        <path class="cls-1" d="M107.41,12.02l-1.92,5.88c-.9-.25-1.83-.37-2.82-.37s-1.92.12-2.81.4l-1.92-5.91c1.52-.43,3.09-.68,4.73-.68s3.22.25,4.73.68Z"/>
        <path class="cls-3" d="M98.96,18.21c-1.79.68-3.37,1.82-4.55,3.31l-5.01-3.65c1.95-2.54,4.61-4.49,7.67-5.57l1.89,5.91Z"/>
        <path class="cls-2" d="M110.93,21.52c-1.2-1.53-2.79-2.67-4.57-3.31l1.91-5.91c2.35-.39,4.21-2.21,4.65-4.54.37-1.95,2.07-3.36,4.06-3.36,2.28,0,4.13,1.85,4.13,4.13,0,1.53-.85,2.93-2.21,3.66-2.08,1.1-3.26,3.36-2.98,5.69l-4.98,3.65h0s0,0,0,0Z"/>
      </g>
    </g>
  </g>
</svg>