<svg width="120" height="139" viewBox="0 0 120 139" fill="none" xmlns="http://www.w3.org/2000/svg">
<path d="M27.0431 61.2071C23.458 66.5011 21.3409 72.7577 21.115 79.5522H0C0.197601 68.1148 3.81087 57.4984 9.82357 48.7222L27.0431 61.2354V61.2071Z" fill="#585858"/>
<path d="M27.043 101.04L9.82357 113.553C3.81087 104.749 0.197601 94.1606 0 82.7231H21.1433C21.3409 89.5176 23.458 95.7459 27.0713 101.068L27.043 101.04Z" fill="#EDECEC"/>
<path d="M44.3755 114.94L37.9394 135.182C27.4665 131.474 18.4051 124.792 11.7432 116.101L28.8497 103.588C32.8582 108.684 38.2499 112.591 44.3755 114.94Z" fill="#8EADBD"/>
<path d="M73.225 136.116C68.0592 137.589 62.6675 138.438 57.05 138.438C51.4325 138.438 46.0691 137.589 40.875 136.116L47.424 115.875C50.501 116.837 53.6626 117.262 57.05 117.262C60.4375 117.262 63.5991 116.837 66.676 115.988L73.225 136.116Z" fill="#585858"/>
<path d="M102.272 116.101C95.7233 124.679 86.6337 131.474 76.1609 135.182L69.6118 114.94C75.8503 112.704 81.242 108.684 85.2505 103.588L102.272 116.101Z" fill="#585858"/>
<path d="M114.128 82.7231C113.931 94.1605 110.233 104.777 104.192 113.553L87.0854 101.04C90.6705 95.7459 92.7876 89.4893 93.0135 82.6948H114.157L114.128 82.7231Z" fill="#585858"/>
<path d="M114.128 79.5239H92.9851C92.7875 72.7294 90.6704 66.5011 87.0571 61.1787L104.164 48.6655C110.176 57.4701 113.874 68.0582 114.1 79.4956L114.128 79.5239Z" fill="#585858"/>
<path d="M73.225 26.1305L66.676 46.2593C63.5991 45.4099 60.4375 44.9853 57.05 44.9853C53.6626 44.9853 50.501 45.4099 47.424 46.3725L40.875 26.1305C46.0408 24.6584 51.4325 23.8091 57.05 23.8091C62.6675 23.8091 68.031 24.6584 73.225 26.1305Z" fill="#EDECEC"/>
<path d="M44.3755 47.3069C38.2499 49.6283 32.8582 53.5635 28.8497 58.6594L11.7432 46.1462C18.4051 37.4549 27.4947 30.7736 37.9394 27.0649L44.3755 47.3069Z" fill="#585858"/>
<path d="M85.2505 58.6592C81.1291 53.4218 75.7092 49.4866 69.6118 47.335L76.1609 27.0931C84.2907 26.9798 91.0656 20.7799 91.8842 12.6831C92.6182 5.57715 98.772 0 105.914 0C113.677 0 120 6.34154 120 14.1269C120 19.789 116.613 24.9132 111.418 27.1497C104.079 30.2922 100.155 38.4172 102.272 46.146L85.2505 58.6592Z" fill="#F9E590"/>
</svg>
