<svg width="120" height="140" viewBox="0 0 120 140" fill="none" xmlns="http://www.w3.org/2000/svg">
<path d="M27.043 61.4604C23.458 66.7763 21.3409 73.0588 21.115 79.8814H0C0.197601 68.3967 3.81087 57.7364 9.82357 48.9238L27.043 61.4888V61.4604Z" fill="#EDECEC"/>
<path d="M27.043 101.458L9.82357 114.022C3.81087 105.182 0.197601 94.5497 0 83.0649H21.1433C21.3409 89.8875 23.458 96.1416 27.0713 101.486L27.043 101.458Z" fill="#EDECEC"/>
<path d="M44.3755 115.416L37.9394 135.741C27.4665 132.017 18.4051 125.308 11.7432 116.581L28.8497 104.016C32.8582 109.133 38.2499 113.056 44.3755 115.416Z" fill="#EDECEC"/>
<path d="M73.225 136.68C68.0592 138.158 62.6675 139.011 57.05 139.011C51.4325 139.011 46.0691 138.158 40.875 136.68L47.424 116.354C50.501 117.321 53.6626 117.747 57.05 117.747C60.4375 117.747 63.5991 117.321 66.676 116.468L73.225 136.68Z" fill="#EDECEC"/>
<path d="M102.272 116.581C95.7233 125.195 86.6337 132.017 76.1609 135.741L69.6118 115.416C75.8503 113.17 81.242 109.133 85.2505 104.016L102.272 116.581Z" fill="#EDECEC"/>
<path d="M114.128 83.065C113.931 94.5498 110.233 105.21 104.192 114.023L87.0854 101.458C90.6705 96.1417 92.7876 89.8592 93.0135 83.0366H114.157L114.128 83.065Z" fill="#EDECEC"/>
<path d="M114.128 79.8527H92.9851C92.7875 73.0301 90.6704 66.776 87.0571 61.4317L104.164 48.8667C110.176 57.7077 113.874 68.3395 114.1 79.8242L114.128 79.8527Z" fill="#EDECEC"/>
<path d="M73.225 26.2388L66.676 46.4507C63.5991 45.5979 60.4375 45.1715 57.05 45.1715C53.6626 45.1715 50.501 45.5979 47.424 46.5644L40.875 26.2388C46.0408 24.7605 51.4325 23.9077 57.05 23.9077C62.6675 23.9077 68.031 24.7605 73.225 26.2388Z" fill="#EDECEC"/>
<path d="M44.3755 47.5024C38.2499 49.8335 32.8582 53.7849 28.8497 58.9019L11.7432 46.3369C18.4051 37.6096 27.4948 30.9008 37.9394 27.1768L44.3755 47.5024Z" fill="#EDECEC"/>
<path d="M85.2505 58.9018C81.1291 53.6427 75.7092 49.6913 69.6118 47.5308L76.1609 27.2051C84.2907 27.0914 91.0656 20.8658 91.8842 12.7355C92.6182 5.60022 98.772 0 105.914 0C113.677 0 120 6.36776 120 14.1853C120 19.8708 116.613 25.0162 111.418 27.262C104.079 30.4174 100.155 38.5761 102.272 46.3368L85.2505 58.9018Z" fill="#EDECEC"/>
</svg>
