<?xml version="1.0" encoding="UTF-8"?>
<svg id="Layer_2" data-name="Layer 2" xmlns="http://www.w3.org/2000/svg" viewBox="0 0 99.21 67.84">
  <defs>
    <style>
      .cls-1 {
        fill: #edecec;
      }

      .cls-2 {
        fill: #f9e590;
      }

      .cls-3 {
        fill: #585858;
      }

      .cls-4 {
        fill: #8eadbd;
      }
    </style>
  </defs>
  <g id="Layer_1-2" data-name="Layer 1">
    <g>
      <g>
        <path class="cls-3" d="M3.62,66.85c-1.13-.64-2.02-1.54-2.66-2.68s-.97-2.44-.97-3.9.32-2.75.97-3.9,1.53-2.04,2.66-2.68c1.13-.64,2.4-.96,3.82-.96,1.31,0,2.46.27,3.46.81,1,.54,1.78,1.33,2.34,2.37l-1.99,1.2c-.43-.71-.98-1.24-1.64-1.59-.66-.35-1.39-.53-2.17-.53-.91,0-1.74.22-2.48.66-.74.44-1.32,1.06-1.74,1.86-.42.8-.63,1.72-.63,2.77s.21,1.99.63,2.79c.42.8,1,1.42,1.74,1.84.74.43,1.56.64,2.48.64.8,0,1.53-.17,2.18-.52.65-.34,1.19-.88,1.62-1.61l1.99,1.23c-.56,1.02-1.34,1.81-2.35,2.35-1.01.54-2.16.81-3.44.81-1.42,0-2.69-.32-3.82-.96Z"/>
        <path class="cls-3" d="M27,54.35c1.04,1.08,1.57,2.66,1.57,4.75v8.57h-2.55v-8.21c0-1.45-.33-2.55-.99-3.28-.66-.73-1.61-1.1-2.84-1.1-1.36,0-2.44.44-3.25,1.31-.8.88-1.2,2.09-1.2,3.63v7.65h-2.57v-20.72h2.57v8.41c.5-.84,1.19-1.48,2.07-1.94.88-.46,1.88-.68,2.99-.68,1.75,0,3.15.54,4.2,1.62Z"/>
        <path class="cls-3" d="M35.68,53.43c.88-.48,1.92-.72,3.13-.7v2.51c-.15-.02-.35-.03-.62-.03-1.38,0-2.46.43-3.25,1.3-.78.87-1.18,2.11-1.18,3.73v7.43h-2.57v-14.77h2.46v2.65c.47-.93,1.14-1.64,2.02-2.12Z"/>
        <path class="cls-3" d="M43.03,66.85c-1.12-.64-2-1.54-2.63-2.68-.63-1.15-.95-2.44-.95-3.9s.32-2.75.95-3.9c.63-1.15,1.51-2.04,2.63-2.68,1.12-.64,2.38-.96,3.78-.96s2.65.32,3.76.96c1.11.64,1.98,1.54,2.62,2.68.63,1.15.95,2.44.95,3.9s-.32,2.75-.95,3.9c-.63,1.15-1.51,2.04-2.62,2.68-1.11.64-2.36.96-3.76.96s-2.66-.32-3.78-.96ZM49.24,64.89c.73-.44,1.3-1.06,1.71-1.86.41-.8.62-1.72.62-2.76s-.21-1.96-.62-2.77c-.41-.8-.98-1.42-1.71-1.86-.73-.44-1.54-.66-2.43-.66s-1.71.22-2.43.66c-.73.44-1.3,1.06-1.71,1.86-.41.8-.62,1.72-.62,2.77s.21,1.96.62,2.76c.41.8.98,1.42,1.71,1.86.73.44,1.54.66,2.43.66s1.71-.22,2.43-.66Z"/>
        <path class="cls-3" d="M78.02,54.35c1.02,1.08,1.53,2.66,1.53,4.75v8.57h-2.55v-8.21c0-1.45-.32-2.55-.95-3.28-.63-.73-1.53-1.1-2.69-1.1-1.31,0-2.35.43-3.12,1.3-.77.87-1.16,2.06-1.16,3.59v7.71h-2.52v-8.21c0-1.45-.32-2.55-.95-3.28-.63-.73-1.53-1.1-2.69-1.1-1.31,0-2.34.43-3.11,1.28-.77.86-1.15,2.06-1.15,3.6v7.71h-2.55v-14.77h2.43v2.54c.5-.86,1.18-1.52,2.04-2,.86-.47,1.84-.71,2.94-.71,1.18,0,2.19.27,3.05.81.86.54,1.48,1.32,1.88,2.35.5-.99,1.23-1.76,2.17-2.32.94-.56,2.03-.84,3.26-.84,1.74,0,3.11.54,4.13,1.62Z"/>
        <path class="cls-3" d="M92.15,54.22c1.04,1,1.55,2.48,1.55,4.45v8.99h-2.41v-2.35c-.41.8-1.02,1.42-1.82,1.84-.8.43-1.77.64-2.91.64-1.6,0-2.86-.4-3.78-1.2-.91-.8-1.37-1.84-1.37-3.13s.45-2.31,1.36-3.09c.9-.77,2.32-1.16,4.24-1.16h4.14c0-.56-.06-1.04-.17-1.45-.26-1.92-1.46-2.88-3.58-2.88-.86,0-1.69.15-2.49.45-.8.3-1.48.71-2.04,1.23l-1.01-1.87c.73-.63,1.6-1.12,2.63-1.47,1.03-.34,2.09-.52,3.19-.52,1.94,0,3.43.5,4.46,1.49ZM89.63,65.21c.68-.47,1.19-1.15,1.53-2.04v-2.23h-3.92c-2.22,0-3.33.81-3.33,2.43,0,.78.28,1.4.85,1.86.57.46,1.36.68,2.36.68s1.82-.23,2.51-.7Z"/>
        <path class="cls-3" d="M96.06,67.31c-.36-.35-.55-.79-.55-1.31s.18-.98.53-1.33c.35-.34.79-.52,1.32-.52s.96.17,1.32.52c.35.34.53.79.53,1.33s-.18.96-.53,1.31c-.35.35-.79.53-1.32.53s-.94-.18-1.3-.53Z"/>
      </g>
      <g>
        <path class="cls-3" d="M39.09,19.47c-1.15,1.69-1.82,3.68-1.89,5.83h-6.74c.07-3.64,1.21-7.01,3.14-9.81l5.5,3.98Z"/>
        <path class="cls-1" d="M39.09,32.15l-5.5,3.98c-1.92-2.8-3.07-6.17-3.14-9.81h6.74c.07,2.16.74,4.15,1.89,5.83Z"/>
        <path class="cls-4" d="M44.62,36.57l-2.06,6.44c-3.34-1.18-6.24-3.3-8.36-6.07l5.46-3.98c1.28,1.62,3,2.87,4.96,3.61Z"/>
        <path class="cls-3" d="M53.82,43.31c-1.65.47-3.37.74-5.16.74s-3.51-.27-5.16-.74l2.09-6.44c.98.3,1.99.44,3.07.44s2.09-.13,3.07-.4l2.09,6.41Z"/>
        <path class="cls-3" d="M63.1,36.94c-2.09,2.73-4.99,4.89-8.33,6.07l-2.09-6.44c1.99-.71,3.71-1.99,4.99-3.61l5.43,3.98Z"/>
        <path class="cls-3" d="M66.87,26.32c-.07,3.64-1.25,7.01-3.17,9.81l-5.46-3.98c1.15-1.69,1.82-3.68,1.89-5.83h6.74Z"/>
        <path class="cls-3" d="M66.87,25.31h-6.74c-.07-2.16-.74-4.15-1.89-5.83l5.46-3.98c1.92,2.8,3.1,6.17,3.17,9.81Z"/>
        <path class="cls-1" d="M53.82,8.31l-2.09,6.41c-.98-.27-1.99-.4-3.07-.4s-2.09.13-3.07.44l-2.09-6.44c1.65-.47,3.37-.74,5.16-.74s3.51.27,5.16.74Z"/>
        <path class="cls-3" d="M44.62,15.06c-1.96.74-3.68,1.99-4.96,3.61l-5.46-3.98c2.12-2.77,5.02-4.89,8.36-6.07l2.06,6.44Z"/>
        <path class="cls-2" d="M57.66,18.66c-1.32-1.67-3.04-2.92-4.99-3.61l2.09-6.44c2.58-.26,4.66-2.23,5.04-4.8.33-2.18,2.24-3.82,4.45-3.82,2.48,0,4.5,2.02,4.5,4.5,0,1.71-1,3.3-2.55,4.06-2.3,1.11-3.57,3.62-3.11,6.13l-5.43,3.98h0s0,0,0,0Z"/>
      </g>
    </g>
  </g>
</svg>