<?xml version="1.0" encoding="UTF-8"?>
<svg id="Layer_2" data-name="Layer 2" xmlns="http://www.w3.org/2000/svg" viewBox="0 0 106.39 106.37">
  <defs>
    <style>
      .cls-1 {
        opacity: .4;
      }

      .cls-2 {
        fill: #fff;
        opacity: .8;
      }
    </style>
  </defs>
  <g id="Layer_1-2" data-name="Layer 1">
    <g class="cls-1">
      <path class="cls-2" d="M99.68,39.32c-7.86-6.07-16.7-1.89-23.89-9.21-4.31-4.39-4.31-9.36-5.2-14.46-.13-.71-.28-1.43-.45-2.16-.49-2-1.23-4.01-2.53-6.01-7.66-11.76-27.25-9.08-31,4.01-.81,2.8-1,5.28-1.24,7.58-.3,2.95-.68,5.61-2.5,8.3-.49.9-1.08,1.75-1.8,2.54-7.61,8.31-15.49,3.7-23.22,8.73C2.92,41.85.3,47.02.03,52.31c-.29,5.47,1.93,11.07,6.69,14.74,1.83,1.41,3.71,2.27,5.62,2.83,6.61,2.07,14.22.21,18.95-5.51,2.63-3.18,3.15-6.82,3.62-10.55.37-2.93.72-5.91,2.04-8.79,1-2.2,2.58-4.35,5.17-6.35,4.54-3.49,9.4-4.41,13.85-3.6,8.28,1.51,15.09,9.06,15.52,17.47.15,2.9-.46,5.9-2.03,8.78-.87,1.59-2.02,3.14-3.5,4.61-5.01,5-10.24,4.44-15.53,5.35-2.38.41-4.78,1.11-7.18,2.76-6.23,4.29-8.31,10.69-7.44,16.66.11.73.26,1.45.45,2.16.49,2,1.23,4.01,2.53,6.01,7.66,11.77,27.26,9.08,31-4,.81-2.81,1-5.28,1.24-7.58.52-2.94,1.13-5.81,2.5-8.31.49-.9,1.08-1.75,1.8-2.54,7.61-8.31,15.49-3.7,23.22-8.73,4.93-3.2,7.55-8.38,7.82-13.66.29-5.48-1.93-11.07-6.69-14.74Z"/>
    </g>
  </g>
</svg>