<svg width="150" height="31" viewBox="0 0 150 31" fill="none" xmlns="http://www.w3.org/2000/svg">
<path d="M5.38314 29.561C3.70777 28.5994 2.38945 27.2642 1.43505 25.5485C0.480637 23.8328 0 21.8957 0 19.7165C0 17.5373 0.480637 15.6003 1.43505 13.8846C2.38945 12.1689 3.70777 10.8337 5.38314 9.87207C7.0585 8.91045 8.94672 8.43311 11.0547 8.43311C12.9909 8.43311 14.7075 8.83436 16.1837 9.64377C17.6669 10.4532 18.8204 11.6362 19.6512 13.1928L16.6987 14.9915C16.0601 13.933 15.2499 13.1374 14.2681 12.6116C13.2862 12.0859 12.2082 11.8161 11.0478 11.8161C9.68827 11.8161 8.46608 12.1412 7.36748 12.7984C6.27575 13.4556 5.41747 14.3827 4.79264 15.5795C4.16781 16.7763 3.85883 18.153 3.85883 19.7165C3.85883 21.28 4.16781 22.6982 4.79264 23.8951C5.41747 25.0919 6.27575 26.012 7.36748 26.6554C8.45921 27.2988 9.68827 27.617 11.0478 27.617C12.2357 27.617 13.3205 27.361 14.2887 26.8422C15.2568 26.3233 16.0601 25.5277 16.6987 24.4416L19.6512 26.2818C18.8204 27.8176 17.6531 28.9868 16.1631 29.7893C14.6663 30.5987 12.9635 30.9999 11.0547 30.9999C8.94672 30.9999 7.0585 30.5157 5.38314 29.561Z" fill="#585858"/>
<path d="M39.8037 11.0759C41.3554 12.6947 42.1313 15.0607 42.1313 18.1808V31.0069H38.348V18.7204C38.348 16.5481 37.8536 14.9085 36.8718 13.8085C35.8899 12.7085 34.4823 12.1551 32.6559 12.1551C30.6304 12.1551 29.0237 12.8123 27.8358 14.1198C26.6479 15.4274 26.0506 17.2399 26.0506 19.5505V31H22.2261V0H26.0506V12.5771C26.799 11.3249 27.8221 10.3564 29.1267 9.6715C30.4312 8.98661 31.9143 8.64762 33.576 8.64762C36.1783 8.64762 38.2588 9.45704 39.8105 11.069L39.8037 11.0759Z" fill="#585858"/>
<path d="M52.8221 9.69229C54.1266 8.96589 55.6784 8.61998 57.4774 8.64766V12.4111C57.2577 12.3834 56.9487 12.3696 56.5642 12.3696C54.5112 12.3696 52.9045 13.0199 51.7441 14.3136C50.5837 15.6073 50 17.4682 50 19.8896V31.0069H46.1755V8.89671H49.8352V12.8677C50.5287 11.4772 51.5243 10.4187 52.8289 9.69229H52.8221Z" fill="#585858"/>
<path d="M117.31 11.0758C118.82 12.6947 119.576 15.0607 119.576 18.1807V31.0069H115.792V18.7203C115.792 16.5481 115.319 14.9085 114.378 13.8085C113.437 12.7085 112.105 12.1551 110.389 12.1551C108.452 12.1551 106.907 12.8054 105.754 14.099C104.607 15.3927 104.031 17.1845 104.031 19.4675V31H100.288V18.7134C100.288 16.5411 99.8146 14.9015 98.874 13.8016C97.9333 12.7016 96.6012 12.1481 94.8847 12.1481C92.9484 12.1481 91.4103 12.7915 90.2706 14.0714C89.1376 15.3512 88.5677 17.1499 88.5677 19.4606V30.993H84.7844V8.89663H88.4029V12.7016C89.1514 11.4217 90.1607 10.4255 91.4378 9.71297C92.7149 9.00041 94.1637 8.64758 95.7979 8.64758C97.5419 8.64758 99.0525 9.04883 100.33 9.85825C101.607 10.6677 102.534 11.8368 103.117 13.3657C103.866 11.8922 104.937 10.7368 106.338 9.89976C107.738 9.06267 109.352 8.64758 111.178 8.64758C113.753 8.64758 115.799 9.457 117.31 11.0689V11.0758Z" fill="#585858"/>
<path d="M138.684 10.6746C140.222 12.162 140.991 14.3897 140.991 17.3368V30.7925H137.414V27.285C136.803 28.4818 135.904 29.4019 134.716 30.0453C133.521 30.6887 132.086 31.0069 130.39 31.0069C128.007 31.0069 126.14 30.4051 124.78 29.2082C123.421 28.0114 122.741 26.4479 122.741 24.5316C122.741 22.6153 123.414 21.0726 124.76 19.9172C126.105 18.7619 128.2 18.1808 131.056 18.1808H137.208C137.208 17.3437 137.126 16.6242 136.961 16.0085C136.57 13.1375 134.798 11.7054 131.64 11.7054C130.363 11.7054 129.133 11.9268 127.939 12.3765C126.744 12.8193 125.735 13.435 124.904 14.2167L123.407 11.4149C124.485 10.4671 125.79 9.73379 127.314 9.22185C128.838 8.70991 130.417 8.44702 132.052 8.44702C134.935 8.44702 137.139 9.19418 138.678 10.6816L138.684 10.6746ZM134.942 27.119C135.952 26.4202 136.707 25.4033 137.208 24.0681V20.7266H131.392C128.097 20.7266 126.449 21.9373 126.449 24.3656C126.449 25.5347 126.868 26.4618 127.719 27.1466C128.564 27.8315 129.738 28.1705 131.228 28.1705C132.718 28.1705 133.933 27.8246 134.949 27.1259L134.942 27.119Z" fill="#585858"/>
<path d="M145.324 30.2114C144.782 29.6856 144.514 29.0284 144.514 28.2467C144.514 27.4649 144.775 26.78 145.304 26.2612C145.832 25.7423 146.478 25.4863 147.254 25.4863C148.029 25.4863 148.682 25.7423 149.204 26.2612C149.732 26.78 149.993 27.4372 149.993 28.2467C149.993 29.0561 149.732 29.6787 149.204 30.2114C148.675 30.7441 148.023 31.007 147.254 31.007C146.485 31.007 145.86 30.7441 145.324 30.2114Z" fill="#585858"/>
<path d="M64.4671 15.3996C63.7462 16.4719 63.3205 17.731 63.2793 19.1008H59.0291C59.0703 16.7902 59.7912 14.6525 61.0065 12.8745L64.4671 15.3996Z" fill="#585858"/>
<path d="M64.4671 23.4454L61.0065 25.9706C59.7981 24.1926 59.0703 22.0549 59.0291 19.7443H63.2793C63.3205 21.114 63.7462 22.3731 64.4671 23.4454Z" fill="#EDECEC"/>
<path d="M67.9483 26.2541L66.6506 30.3427C64.5495 29.5956 62.7231 28.2465 61.3842 26.4893L64.8241 23.9642C65.6344 24.9881 66.7124 25.7837 67.9483 26.2541Z" fill="#8EADBD"/>
<path d="M73.7502 30.5295C72.7066 30.827 71.6286 30.9999 70.5025 30.9999C69.3764 30.9999 68.2916 30.827 67.2548 30.5295L68.5731 26.4409C69.191 26.6346 69.8227 26.7176 70.5025 26.7176C71.1823 26.7176 71.8208 26.6346 72.4388 26.4617L73.7571 30.5295H73.7502Z" fill="#585858"/>
<path d="M79.5866 26.4893C78.2683 28.2258 76.4418 29.5956 74.3408 30.3427L73.0225 26.2541C74.279 25.8044 75.357 24.9881 76.1672 23.9642L79.5866 26.4893Z" fill="#585858"/>
<path d="M81.9692 19.7443C81.928 22.0549 81.1864 24.1926 79.9711 25.9706L76.5311 23.4454C77.2521 22.3731 77.6778 21.114 77.719 19.7443H81.9692Z" fill="#585858"/>
<path d="M81.9692 19.1008H77.719C77.6778 17.731 77.2521 16.4719 76.5311 15.3996L79.9711 12.8745C81.1796 14.6525 81.928 16.7902 81.9692 19.1008Z" fill="#585858"/>
<path d="M73.7503 8.31552L72.4319 12.3834C71.814 12.2104 71.1754 12.1274 70.4957 12.1274C69.8159 12.1274 69.1773 12.2104 68.5662 12.4041L67.2479 8.31552C68.2916 8.01805 69.3696 7.84509 70.4957 7.84509C71.6217 7.84509 72.7066 8.01805 73.7434 8.31552H73.7503Z" fill="#EDECEC"/>
<path d="M67.9483 12.5979C66.7192 13.0683 65.6344 13.857 64.8241 14.8878L61.3842 12.3627C62.7231 10.6055 64.5495 9.25643 66.6506 8.50928L67.9483 12.5979Z" fill="#585858"/>
<path d="M76.1672 14.8877C75.3432 13.8293 74.2515 13.0406 73.0293 12.5978L74.3407 8.50924C75.9543 8.23944 77.2314 6.98034 77.5336 5.36843C77.7876 4.0194 78.9549 3.04395 80.3213 3.04395C81.8868 3.04395 83.157 4.32379 83.157 5.90112C83.157 6.95959 82.5734 7.92812 81.6396 8.43314C80.2114 9.19413 79.4012 10.7576 79.5934 12.3695L76.174 14.8946L76.1672 14.8877Z" fill="#F9E590"/>
</svg>
