<svg width="185" height="33" viewBox="0 0 185 33" fill="none" xmlns="http://www.w3.org/2000/svg">
<path d="M35.9109 31.0414C34.1448 30.0379 32.7666 28.6465 31.7632 26.8536C30.7597 25.0607 30.2513 23.0404 30.2513 20.7792C30.2513 18.5181 30.7597 16.4844 31.7632 14.7049C32.7666 12.9254 34.1448 11.5205 35.9109 10.5171C37.677 9.5136 39.6572 9.01855 41.8648 9.01855C43.8985 9.01855 45.7047 9.4467 47.2568 10.2762C48.8088 11.1192 50.0264 12.3501 50.896 13.9824L47.792 15.8555C47.123 14.7584 46.2667 13.9289 45.2365 13.3669C44.2062 12.8184 43.069 12.5374 41.8514 12.5374C40.4198 12.5374 39.1353 12.8853 37.9847 13.5542C36.8341 14.2366 35.9376 15.1999 35.282 16.4576C34.6264 17.7019 34.3053 19.1469 34.3053 20.7659C34.3053 22.3848 34.6264 23.8699 35.282 25.1276C35.9376 26.3719 36.8341 27.3353 37.9847 28.0042C39.1353 28.6732 40.4198 29.0077 41.8514 29.0077C43.0957 29.0077 44.233 28.7401 45.2632 28.2049C46.2801 27.6697 47.123 26.8268 47.792 25.7029L50.896 27.6162C50.0264 29.2084 48.7954 30.4393 47.23 31.2689C45.6646 32.1118 43.8717 32.5265 41.8648 32.5265C39.6572 32.5265 37.6636 32.0315 35.9109 31.028V31.0414Z" fill="#EDECEC"/>
<path d="M72.3703 11.5466C74.0026 13.2324 74.8188 15.6943 74.8188 18.9589V32.3385H70.845V19.5342C70.845 17.2731 70.3232 15.5605 69.293 14.4099C68.2628 13.2592 66.7776 12.6839 64.8643 12.6839C62.737 12.6839 61.0511 13.3662 59.7935 14.731C58.5358 16.0957 57.9203 17.9822 57.9203 20.3905V32.3252H53.9064V0H57.9203V13.112C58.7097 11.8008 59.7801 10.7974 61.1582 10.0882C62.5229 9.37911 64.0883 9.01786 65.8277 9.01786C68.5571 9.01786 70.7514 9.86078 72.3703 11.5466Z" fill="#EDECEC"/>
<path d="M85.9105 10.1023C87.2752 9.35303 88.9075 8.9784 90.7941 9.01854V12.9388C90.5666 12.912 90.2455 12.8986 89.8307 12.8986C87.6766 12.8986 85.9908 13.581 84.7599 14.919C83.5423 16.2703 82.9268 18.2103 82.9268 20.7391V32.3258H78.913V9.28614H82.7529V13.4204C83.4754 11.9621 84.5324 10.8649 85.8971 10.1157L85.9105 10.1023Z" fill="#EDECEC"/>
<path d="M97.3768 31.0414C95.6241 30.0379 94.2593 28.6465 93.2693 26.8536C92.2792 25.0741 91.7841 23.0404 91.7841 20.7792C91.7841 18.5181 92.2792 16.4844 93.2693 14.7049C94.2593 12.9254 95.6241 11.5205 97.3768 10.5171C99.1295 9.5136 101.083 9.01855 103.277 9.01855C105.471 9.01855 107.412 9.5136 109.151 10.5171C110.877 11.5205 112.242 12.912 113.232 14.7049C114.222 16.4844 114.717 18.5181 114.717 20.7792C114.717 23.0404 114.222 25.0741 113.232 26.8536C112.242 28.6331 110.877 30.0379 109.151 31.0414C107.425 32.0449 105.458 32.5399 103.277 32.5399C101.096 32.5399 99.1295 32.0449 97.3768 31.0414ZM107.064 27.9909C108.201 27.3085 109.084 26.3452 109.726 25.0875C110.368 23.8432 110.69 22.3982 110.69 20.7792C110.69 19.1603 110.368 17.7153 109.726 16.471C109.084 15.2267 108.201 14.25 107.064 13.5676C105.926 12.8853 104.669 12.5508 103.264 12.5508C101.859 12.5508 100.601 12.8986 99.464 13.5676C98.3267 14.25 97.4437 15.2133 96.8015 16.471C96.1593 17.7153 95.8381 19.1603 95.8381 20.7792C95.8381 22.3982 96.1593 23.8432 96.8015 25.0875C97.4437 26.3318 98.3267 27.3085 99.464 27.9909C100.601 28.6732 101.859 29.0077 103.264 29.0077C104.669 29.0077 105.926 28.6732 107.064 27.9909Z" fill="#EDECEC"/>
<path d="M151.952 11.547C153.544 13.2328 154.334 15.6947 154.334 18.9593V32.3389H150.36V19.5346C150.36 17.2735 149.865 15.5609 148.875 14.4102C147.885 13.2596 146.493 12.6843 144.687 12.6843C142.653 12.6843 141.021 13.3533 139.817 14.7046C138.613 16.0559 138.011 17.9157 138.011 20.2973V32.3256H134.077V19.5213C134.077 17.2601 133.582 15.5475 132.592 14.3969C131.602 13.2462 130.21 12.6709 128.404 12.6709C126.37 12.6709 124.752 13.3399 123.561 14.6778C122.37 16.0158 121.768 17.889 121.768 20.2973V32.3256H117.794V9.28585H121.594V13.2462C122.383 11.9083 123.44 10.878 124.778 10.1288C126.116 9.39289 127.642 9.01826 129.368 9.01826C131.201 9.01826 132.793 9.44641 134.131 10.2759C135.469 11.1189 136.445 12.3364 137.061 13.9286C137.85 12.3899 138.974 11.1858 140.446 10.3161C141.918 9.44641 143.617 9.00488 145.53 9.00488C148.233 9.00488 150.387 9.8478 151.966 11.5336L151.952 11.547Z" fill="#EDECEC"/>
<path d="M173.989 11.3463C175.607 12.8984 176.41 15.213 176.41 18.2903V32.3122H172.651V28.6462C172.008 29.8905 171.058 30.8538 169.814 31.5228C168.556 32.1918 167.044 32.5263 165.278 32.5263C162.776 32.5263 160.81 31.8974 159.391 30.6531C157.96 29.4088 157.251 27.7765 157.251 25.7695C157.251 23.7626 157.96 22.157 159.365 20.9529C160.769 19.7487 162.977 19.1466 165.974 19.1466H172.436C172.436 18.277 172.343 17.5143 172.169 16.8855C171.767 13.8884 169.894 12.4033 166.576 12.4033C165.238 12.4033 163.94 12.6308 162.696 13.099C161.438 13.5673 160.381 14.2096 159.512 15.0123L157.946 12.0956C159.084 11.1055 160.448 10.3428 162.054 9.80766C163.659 9.27248 165.319 9.00488 167.031 9.00488C170.055 9.00488 172.383 9.7809 173.989 11.3329V11.3463ZM170.068 28.4856C171.125 27.7631 171.928 26.7061 172.45 25.3013V21.8226H166.335C162.87 21.8226 161.144 23.0802 161.144 25.609C161.144 26.8265 161.586 27.7899 162.482 28.5124C163.365 29.2215 164.596 29.5827 166.175 29.5827C167.754 29.5827 169.025 29.2215 170.082 28.499L170.068 28.4856Z" fill="#EDECEC"/>
<path d="M180.103 31.7626C179.541 31.214 179.247 30.5316 179.247 29.7155C179.247 28.8993 179.528 28.1902 180.076 27.6416C180.625 27.1065 181.307 26.8389 182.123 26.8389C182.939 26.8389 183.622 27.1065 184.17 27.6416C184.719 28.1768 185 28.8726 185 29.7155C185 30.5584 184.719 31.214 184.17 31.7626C183.622 32.3111 182.926 32.5921 182.123 32.5921C181.321 32.5921 180.665 32.3111 180.09 31.7626H180.103Z" fill="#EDECEC"/>
<path d="M6.32856 14.8914C5.48564 16.1223 4.9906 17.594 4.93708 19.1728H0C0.0535185 16.4969 0.896435 14.0217 2.30129 11.9746L6.32856 14.8914Z" fill="#EDECEC"/>
<path d="M6.32856 24.1907L2.30129 27.1074C0.896435 25.0603 0.0535185 22.5851 0 19.9092H4.95046C5.00398 21.488 5.49902 22.9464 6.34194 24.1907H6.32856Z" fill="#EDECEC"/>
<path d="M10.3959 27.4421L8.88404 32.1651C6.43557 31.2955 4.30821 29.7434 2.7428 27.7097L6.75668 24.793C7.69326 25.9838 8.96432 26.8936 10.3959 27.4421Z" fill="#EDECEC"/>
<path d="M17.1527 32.3783C15.9352 32.7261 14.6775 32.9268 13.3663 32.9268C12.0551 32.9268 10.7974 32.7261 9.57983 32.3783L11.1185 27.6553C11.841 27.8827 12.5769 27.9764 13.3663 27.9764C14.1557 27.9764 14.9049 27.8827 15.614 27.682L17.1527 32.3783Z" fill="#EDECEC"/>
<path d="M23.9495 27.7097C22.4109 29.7167 20.2835 31.2955 17.835 32.1651L16.2964 27.4421C17.7548 26.9203 19.0124 25.9838 19.9624 24.793L23.9495 27.7097Z" fill="#EDECEC"/>
<path d="M26.7191 19.9092C26.6656 22.5851 25.8093 25.0603 24.3911 27.1074L20.3772 24.1907C21.2201 22.9597 21.7152 21.488 21.7687 19.9092H26.7191Z" fill="#EDECEC"/>
<path d="M26.7191 19.1728H21.7687C21.7152 17.594 21.2201 16.1357 20.3772 14.8914L24.3911 11.9746C25.7959 14.0217 26.6656 16.4969 26.7191 19.1728Z" fill="#EDECEC"/>
<path d="M17.1527 6.70286L15.614 11.3991C14.8915 11.1984 14.1557 11.1048 13.3663 11.1048C12.5769 11.1048 11.8276 11.1984 11.1185 11.4259L9.57983 6.70286C10.7974 6.35499 12.0551 6.1543 13.3663 6.1543C14.6775 6.1543 15.9352 6.35499 17.1527 6.70286Z" fill="#EDECEC"/>
<path d="M10.3959 11.6537C8.96432 12.2022 7.69326 13.112 6.75668 14.3028L2.7428 11.3861C4.30821 9.35238 6.43557 7.80034 8.88404 6.93066L10.3959 11.6537Z" fill="#EDECEC"/>
<path d="M19.9624 14.3026C18.9991 13.085 17.728 12.1618 16.3098 11.6534L17.8484 6.93041C18.0357 6.95717 18.2097 6.98393 18.397 6.98393C19.1195 6.98393 19.8286 6.72972 20.3905 6.26143C21.0997 5.67273 21.5144 4.80306 21.5144 3.89324C21.5144 2.08699 23.0129 0.615234 24.8192 0.615234C26.6254 0.615234 28.124 2.10037 28.124 3.92C28.124 5.365 27.2008 6.62268 25.8227 7.06421C24.9664 7.34518 24.2572 7.97402 23.9094 8.80356C23.5481 9.6331 23.5749 10.5831 23.9763 11.3858L19.9891 14.3026H19.9624Z" fill="#EDECEC"/>
</svg>
